<!DOCTYPE svg PUBLIC "-//W3C//DTD SVG 1.1//EN" "http://www.w3.org/Graphics/SVG/1.1/DTD/svg11.dtd">
<!-- Uploaded to: SVG Repo, www.svgrepo.com, Transformed by: SVG Repo Mixer Tools -->
<svg width="256px" height="256px" viewBox="-56.32 -56.32 624.64 624.64" xmlns="http://www.w3.org/2000/svg" fill="#000000" stroke="#000000" stroke-width="0.00512">
<g id="SVGRepo_bgCarrier" stroke-width="0">
<rect x="-56.32" y="-56.32" width="624.64" height="624.64" rx="0" fill="#ffffff" strokewidth="0"/>
</g>
<g id="SVGRepo_tracerCarrier" stroke-linecap="round" stroke-linejoin="round"/>
<g id="SVGRepo_iconCarrier"> <path fill="var(--ci-primary-color, #000000)" d="M222.085,235.644l-62.01-62.01L81.8,251.905l62.009,62.01-.04.04,66.958,66.957,11.354,11.275.04.039,66.957-66.957,11.273-11.354L502.628,111.644,424.356,33.373Zm44.33,66.958-11.274,11.353h0l-33.057,33.056-.04-.039-33.017-33.017.04-.04-62.009-62.01,33.016-33.016,62.01,62.009L424.356,78.627l33.017,33.017Z" class="ci-primary"/> <polygon fill="var(--ci-primary-color, #000000)" points="448 464 48 464 48 64 348.22 64 380.22 32 16 32 16 496 480 496 480 179.095 448 211.095 448 464" class="ci-primary"/> </g>
</svg>